# xmcd
#
# Track frame offsets:
#	150
#	26475
#	47587
#	63112
#	75212
#	102485
#	125797
#	143822
#	166962
#	184712
#	207895
#
# Disc length: 3167 seconds
# Revision: 0
# Processed by: cddbd v1.5.2PL0 Copyright (c) Steve Scherf et al.
# Submitted via: dBpowerAMP V12.0
#
DISCID=8c0c5d0b
DTITLE=Various Artist - Something New Something Blue
DYEAR=1998
DGENRE=Blues
TTITLE0=CBN - Hold on to You
TTITLE1=Blazin' Row - One Last River to Cross
TTITLE2=Reconsider - Long Time Coming
TTITLE3=The Sensational Midnight Willie Band - Streamlined Boogie
TTITLE4=The Big Blue - You Talk Too Much
TTITLE5=The Freeze - Caught in the Act
TTITLE6=CBN - Fast Talkin' Woman
TTITLE7=Blazin' Row - Jesus Wants To Buy Yez A Drink
TTITLE8=The Big Blue - I do
TTITLE9=The Sensational Midnight Willie Band - New Deal
TTITLE10=Reconsider - Cold Heart
EXTD=
EXTT0=
EXTT1=
EXTT2=
EXTT3=
EXTT4=
EXTT5=
EXTT6=
EXTT7=
EXTT8=
EXTT9=
EXTT10=
PLAYORDER=
